G04 #@! TF.GenerationSoftware,KiCad,Pcbnew,(5.0.2)-1*
G04 #@! TF.CreationDate,2019-02-20T10:06:25+00:00*
G04 #@! TF.ProjectId,PersistenceOfVision,50657273-6973-4746-956e-63654f665669,1*
G04 #@! TF.SameCoordinates,Original*
G04 #@! TF.FileFunction,Soldermask,Bot*
G04 #@! TF.FilePolarity,Negative*
%FSLAX46Y46*%
G04 Gerber Fmt 4.6, Leading zero omitted, Abs format (unit mm)*
G04 Created by KiCad (PCBNEW (5.0.2)-1) date 20/02/2019 10:06:25*
%MOMM*%
%LPD*%
G01*
G04 APERTURE LIST*
%ADD10C,0.100000*%
G04 APERTURE END LIST*
D10*
G36*
X132992396Y-154025546D02*
X133165466Y-154097234D01*
X133321230Y-154201312D01*
X133453688Y-154333770D01*
X133557766Y-154489534D01*
X133629454Y-154662604D01*
X133666000Y-154846333D01*
X133666000Y-155033667D01*
X133629454Y-155217396D01*
X133557766Y-155390466D01*
X133453688Y-155546230D01*
X133321230Y-155678688D01*
X133165466Y-155782766D01*
X132992396Y-155854454D01*
X132808667Y-155891000D01*
X132621333Y-155891000D01*
X132437604Y-155854454D01*
X132264534Y-155782766D01*
X132108770Y-155678688D01*
X131976312Y-155546230D01*
X131872234Y-155390466D01*
X131800546Y-155217396D01*
X131764000Y-155033667D01*
X131764000Y-154846333D01*
X131800546Y-154662604D01*
X131872234Y-154489534D01*
X131976312Y-154333770D01*
X132108770Y-154201312D01*
X132264534Y-154097234D01*
X132437604Y-154025546D01*
X132621333Y-153989000D01*
X132808667Y-153989000D01*
X132992396Y-154025546D01*
X132992396Y-154025546D01*
G37*
G36*
X136206000Y-155891000D02*
X134304000Y-155891000D01*
X134304000Y-153989000D01*
X136206000Y-153989000D01*
X136206000Y-155891000D01*
X136206000Y-155891000D01*
G37*
G36*
X136206000Y-143191000D02*
X134304000Y-143191000D01*
X134304000Y-141289000D01*
X136206000Y-141289000D01*
X136206000Y-143191000D01*
X136206000Y-143191000D01*
G37*
G36*
X132992396Y-141325546D02*
X133165466Y-141397234D01*
X133321230Y-141501312D01*
X133453688Y-141633770D01*
X133557766Y-141789534D01*
X133629454Y-141962604D01*
X133666000Y-142146333D01*
X133666000Y-142333667D01*
X133629454Y-142517396D01*
X133557766Y-142690466D01*
X133453688Y-142846230D01*
X133321230Y-142978688D01*
X133165466Y-143082766D01*
X132992396Y-143154454D01*
X132808667Y-143191000D01*
X132621333Y-143191000D01*
X132437604Y-143154454D01*
X132264534Y-143082766D01*
X132108770Y-142978688D01*
X131976312Y-142846230D01*
X131872234Y-142690466D01*
X131800546Y-142517396D01*
X131764000Y-142333667D01*
X131764000Y-142146333D01*
X131800546Y-141962604D01*
X131872234Y-141789534D01*
X131976312Y-141633770D01*
X132108770Y-141501312D01*
X132264534Y-141397234D01*
X132437604Y-141325546D01*
X132621333Y-141289000D01*
X132808667Y-141289000D01*
X132992396Y-141325546D01*
X132992396Y-141325546D01*
G37*
G36*
X132992396Y-128625546D02*
X133165466Y-128697234D01*
X133321230Y-128801312D01*
X133453688Y-128933770D01*
X133557766Y-129089534D01*
X133629454Y-129262604D01*
X133666000Y-129446333D01*
X133666000Y-129633667D01*
X133629454Y-129817396D01*
X133557766Y-129990466D01*
X133453688Y-130146230D01*
X133321230Y-130278688D01*
X133165466Y-130382766D01*
X132992396Y-130454454D01*
X132808667Y-130491000D01*
X132621333Y-130491000D01*
X132437604Y-130454454D01*
X132264534Y-130382766D01*
X132108770Y-130278688D01*
X131976312Y-130146230D01*
X131872234Y-129990466D01*
X131800546Y-129817396D01*
X131764000Y-129633667D01*
X131764000Y-129446333D01*
X131800546Y-129262604D01*
X131872234Y-129089534D01*
X131976312Y-128933770D01*
X132108770Y-128801312D01*
X132264534Y-128697234D01*
X132437604Y-128625546D01*
X132621333Y-128589000D01*
X132808667Y-128589000D01*
X132992396Y-128625546D01*
X132992396Y-128625546D01*
G37*
G36*
X136206000Y-130491000D02*
X134304000Y-130491000D01*
X134304000Y-128589000D01*
X136206000Y-128589000D01*
X136206000Y-130491000D01*
X136206000Y-130491000D01*
G37*
G36*
X132992396Y-115925546D02*
X133165466Y-115997234D01*
X133321230Y-116101312D01*
X133453688Y-116233770D01*
X133557766Y-116389534D01*
X133629454Y-116562604D01*
X133666000Y-116746333D01*
X133666000Y-116933667D01*
X133629454Y-117117396D01*
X133557766Y-117290466D01*
X133453688Y-117446230D01*
X133321230Y-117578688D01*
X133165466Y-117682766D01*
X132992396Y-117754454D01*
X132808667Y-117791000D01*
X132621333Y-117791000D01*
X132437604Y-117754454D01*
X132264534Y-117682766D01*
X132108770Y-117578688D01*
X131976312Y-117446230D01*
X131872234Y-117290466D01*
X131800546Y-117117396D01*
X131764000Y-116933667D01*
X131764000Y-116746333D01*
X131800546Y-116562604D01*
X131872234Y-116389534D01*
X131976312Y-116233770D01*
X132108770Y-116101312D01*
X132264534Y-115997234D01*
X132437604Y-115925546D01*
X132621333Y-115889000D01*
X132808667Y-115889000D01*
X132992396Y-115925546D01*
X132992396Y-115925546D01*
G37*
G36*
X136206000Y-117791000D02*
X134304000Y-117791000D01*
X134304000Y-115889000D01*
X136206000Y-115889000D01*
X136206000Y-117791000D01*
X136206000Y-117791000D01*
G37*
G36*
X136206000Y-105091000D02*
X134304000Y-105091000D01*
X134304000Y-103189000D01*
X136206000Y-103189000D01*
X136206000Y-105091000D01*
X136206000Y-105091000D01*
G37*
G36*
X132992396Y-103225546D02*
X133165466Y-103297234D01*
X133321230Y-103401312D01*
X133453688Y-103533770D01*
X133557766Y-103689534D01*
X133629454Y-103862604D01*
X133666000Y-104046333D01*
X133666000Y-104233667D01*
X133629454Y-104417396D01*
X133557766Y-104590466D01*
X133453688Y-104746230D01*
X133321230Y-104878688D01*
X133165466Y-104982766D01*
X132992396Y-105054454D01*
X132808667Y-105091000D01*
X132621333Y-105091000D01*
X132437604Y-105054454D01*
X132264534Y-104982766D01*
X132108770Y-104878688D01*
X131976312Y-104746230D01*
X131872234Y-104590466D01*
X131800546Y-104417396D01*
X131764000Y-104233667D01*
X131764000Y-104046333D01*
X131800546Y-103862604D01*
X131872234Y-103689534D01*
X131976312Y-103533770D01*
X132108770Y-103401312D01*
X132264534Y-103297234D01*
X132437604Y-103225546D01*
X132621333Y-103189000D01*
X132808667Y-103189000D01*
X132992396Y-103225546D01*
X132992396Y-103225546D01*
G37*
G36*
X149386689Y-80538706D02*
X149530040Y-80552825D01*
X149775280Y-80627218D01*
X149775282Y-80627219D01*
X150001296Y-80748026D01*
X150199397Y-80910603D01*
X150361974Y-81108704D01*
X150361975Y-81108706D01*
X150482782Y-81334720D01*
X150557175Y-81579960D01*
X150582294Y-81835000D01*
X150557175Y-82090040D01*
X150511004Y-82242244D01*
X150482781Y-82335282D01*
X150361974Y-82561296D01*
X150199397Y-82759397D01*
X150001296Y-82921974D01*
X150001294Y-82921975D01*
X149775280Y-83042782D01*
X149530040Y-83117175D01*
X149386689Y-83131294D01*
X149338906Y-83136000D01*
X148711094Y-83136000D01*
X148663311Y-83131294D01*
X148519960Y-83117175D01*
X148274720Y-83042782D01*
X148048706Y-82921975D01*
X148048704Y-82921974D01*
X147850603Y-82759397D01*
X147688026Y-82561296D01*
X147567219Y-82335282D01*
X147538996Y-82242244D01*
X147492825Y-82090040D01*
X147467706Y-81835000D01*
X147492825Y-81579960D01*
X147567218Y-81334720D01*
X147688025Y-81108706D01*
X147688026Y-81108704D01*
X147850603Y-80910603D01*
X148048704Y-80748026D01*
X148274718Y-80627219D01*
X148274720Y-80627218D01*
X148519960Y-80552825D01*
X148663311Y-80538706D01*
X148711094Y-80534000D01*
X149338906Y-80534000D01*
X149386689Y-80538706D01*
X149386689Y-80538706D01*
G37*
G36*
X136886689Y-80538706D02*
X137030040Y-80552825D01*
X137275280Y-80627218D01*
X137275282Y-80627219D01*
X137501296Y-80748026D01*
X137699397Y-80910603D01*
X137861974Y-81108704D01*
X137861975Y-81108706D01*
X137982782Y-81334720D01*
X138057175Y-81579960D01*
X138082294Y-81835000D01*
X138057175Y-82090040D01*
X138011004Y-82242244D01*
X137982781Y-82335282D01*
X137861974Y-82561296D01*
X137699397Y-82759397D01*
X137501296Y-82921974D01*
X137501294Y-82921975D01*
X137275280Y-83042782D01*
X137030040Y-83117175D01*
X136886689Y-83131294D01*
X136838906Y-83136000D01*
X136211094Y-83136000D01*
X136163311Y-83131294D01*
X136019960Y-83117175D01*
X135774720Y-83042782D01*
X135548706Y-82921975D01*
X135548704Y-82921974D01*
X135350603Y-82759397D01*
X135188026Y-82561296D01*
X135067219Y-82335282D01*
X135038996Y-82242244D01*
X134992825Y-82090040D01*
X134967706Y-81835000D01*
X134992825Y-81579960D01*
X135067218Y-81334720D01*
X135188025Y-81108706D01*
X135188026Y-81108704D01*
X135350603Y-80910603D01*
X135548704Y-80748026D01*
X135774718Y-80627219D01*
X135774720Y-80627218D01*
X136019960Y-80552825D01*
X136163311Y-80538706D01*
X136211094Y-80534000D01*
X136838906Y-80534000D01*
X136886689Y-80538706D01*
X136886689Y-80538706D01*
G37*
G36*
X127166821Y-81076313D02*
X127166824Y-81076314D01*
X127166825Y-81076314D01*
X127327239Y-81124975D01*
X127327241Y-81124976D01*
X127327244Y-81124977D01*
X127475078Y-81203995D01*
X127604659Y-81310341D01*
X127711005Y-81439922D01*
X127790023Y-81587756D01*
X127838687Y-81748179D01*
X127855117Y-81915000D01*
X127838687Y-82081821D01*
X127790023Y-82242244D01*
X127711005Y-82390078D01*
X127604659Y-82519659D01*
X127475078Y-82626005D01*
X127327244Y-82705023D01*
X127327241Y-82705024D01*
X127327239Y-82705025D01*
X127166825Y-82753686D01*
X127166824Y-82753686D01*
X127166821Y-82753687D01*
X127041804Y-82766000D01*
X126958196Y-82766000D01*
X126833179Y-82753687D01*
X126833176Y-82753686D01*
X126833175Y-82753686D01*
X126672761Y-82705025D01*
X126672759Y-82705024D01*
X126672756Y-82705023D01*
X126524922Y-82626005D01*
X126395341Y-82519659D01*
X126288995Y-82390078D01*
X126209977Y-82242244D01*
X126161313Y-82081821D01*
X126144883Y-81915000D01*
X126161313Y-81748179D01*
X126209977Y-81587756D01*
X126288995Y-81439922D01*
X126395341Y-81310341D01*
X126524922Y-81203995D01*
X126672756Y-81124977D01*
X126672759Y-81124976D01*
X126672761Y-81124975D01*
X126833175Y-81076314D01*
X126833176Y-81076314D01*
X126833179Y-81076313D01*
X126958196Y-81064000D01*
X127041804Y-81064000D01*
X127166821Y-81076313D01*
X127166821Y-81076313D01*
G37*
G36*
X124626821Y-81076313D02*
X124626824Y-81076314D01*
X124626825Y-81076314D01*
X124787239Y-81124975D01*
X124787241Y-81124976D01*
X124787244Y-81124977D01*
X124935078Y-81203995D01*
X125064659Y-81310341D01*
X125171005Y-81439922D01*
X125250023Y-81587756D01*
X125298687Y-81748179D01*
X125315117Y-81915000D01*
X125298687Y-82081821D01*
X125250023Y-82242244D01*
X125171005Y-82390078D01*
X125064659Y-82519659D01*
X124935078Y-82626005D01*
X124787244Y-82705023D01*
X124787241Y-82705024D01*
X124787239Y-82705025D01*
X124626825Y-82753686D01*
X124626824Y-82753686D01*
X124626821Y-82753687D01*
X124501804Y-82766000D01*
X124418196Y-82766000D01*
X124293179Y-82753687D01*
X124293176Y-82753686D01*
X124293175Y-82753686D01*
X124132761Y-82705025D01*
X124132759Y-82705024D01*
X124132756Y-82705023D01*
X123984922Y-82626005D01*
X123855341Y-82519659D01*
X123748995Y-82390078D01*
X123669977Y-82242244D01*
X123621313Y-82081821D01*
X123604883Y-81915000D01*
X123621313Y-81748179D01*
X123669977Y-81587756D01*
X123748995Y-81439922D01*
X123855341Y-81310341D01*
X123984922Y-81203995D01*
X124132756Y-81124977D01*
X124132759Y-81124976D01*
X124132761Y-81124975D01*
X124293175Y-81076314D01*
X124293176Y-81076314D01*
X124293179Y-81076313D01*
X124418196Y-81064000D01*
X124501804Y-81064000D01*
X124626821Y-81076313D01*
X124626821Y-81076313D01*
G37*
G36*
X122086821Y-81076313D02*
X122086824Y-81076314D01*
X122086825Y-81076314D01*
X122247239Y-81124975D01*
X122247241Y-81124976D01*
X122247244Y-81124977D01*
X122395078Y-81203995D01*
X122524659Y-81310341D01*
X122631005Y-81439922D01*
X122710023Y-81587756D01*
X122758687Y-81748179D01*
X122775117Y-81915000D01*
X122758687Y-82081821D01*
X122710023Y-82242244D01*
X122631005Y-82390078D01*
X122524659Y-82519659D01*
X122395078Y-82626005D01*
X122247244Y-82705023D01*
X122247241Y-82705024D01*
X122247239Y-82705025D01*
X122086825Y-82753686D01*
X122086824Y-82753686D01*
X122086821Y-82753687D01*
X121961804Y-82766000D01*
X121878196Y-82766000D01*
X121753179Y-82753687D01*
X121753176Y-82753686D01*
X121753175Y-82753686D01*
X121592761Y-82705025D01*
X121592759Y-82705024D01*
X121592756Y-82705023D01*
X121444922Y-82626005D01*
X121315341Y-82519659D01*
X121208995Y-82390078D01*
X121129977Y-82242244D01*
X121081313Y-82081821D01*
X121064883Y-81915000D01*
X121081313Y-81748179D01*
X121129977Y-81587756D01*
X121208995Y-81439922D01*
X121315341Y-81310341D01*
X121444922Y-81203995D01*
X121592756Y-81124977D01*
X121592759Y-81124976D01*
X121592761Y-81124975D01*
X121753175Y-81076314D01*
X121753176Y-81076314D01*
X121753179Y-81076313D01*
X121878196Y-81064000D01*
X121961804Y-81064000D01*
X122086821Y-81076313D01*
X122086821Y-81076313D01*
G37*
G36*
X119546821Y-81076313D02*
X119546824Y-81076314D01*
X119546825Y-81076314D01*
X119707239Y-81124975D01*
X119707241Y-81124976D01*
X119707244Y-81124977D01*
X119855078Y-81203995D01*
X119984659Y-81310341D01*
X120091005Y-81439922D01*
X120170023Y-81587756D01*
X120218687Y-81748179D01*
X120235117Y-81915000D01*
X120218687Y-82081821D01*
X120170023Y-82242244D01*
X120091005Y-82390078D01*
X119984659Y-82519659D01*
X119855078Y-82626005D01*
X119707244Y-82705023D01*
X119707241Y-82705024D01*
X119707239Y-82705025D01*
X119546825Y-82753686D01*
X119546824Y-82753686D01*
X119546821Y-82753687D01*
X119421804Y-82766000D01*
X119338196Y-82766000D01*
X119213179Y-82753687D01*
X119213176Y-82753686D01*
X119213175Y-82753686D01*
X119052761Y-82705025D01*
X119052759Y-82705024D01*
X119052756Y-82705023D01*
X118904922Y-82626005D01*
X118775341Y-82519659D01*
X118668995Y-82390078D01*
X118589977Y-82242244D01*
X118541313Y-82081821D01*
X118524883Y-81915000D01*
X118541313Y-81748179D01*
X118589977Y-81587756D01*
X118668995Y-81439922D01*
X118775341Y-81310341D01*
X118904922Y-81203995D01*
X119052756Y-81124977D01*
X119052759Y-81124976D01*
X119052761Y-81124975D01*
X119213175Y-81076314D01*
X119213176Y-81076314D01*
X119213179Y-81076313D01*
X119338196Y-81064000D01*
X119421804Y-81064000D01*
X119546821Y-81076313D01*
X119546821Y-81076313D01*
G37*
G36*
X149386689Y-75538706D02*
X149530040Y-75552825D01*
X149775280Y-75627218D01*
X149775282Y-75627219D01*
X150001296Y-75748026D01*
X150199397Y-75910603D01*
X150361974Y-76108704D01*
X150361975Y-76108706D01*
X150482782Y-76334720D01*
X150557175Y-76579960D01*
X150582294Y-76835000D01*
X150557175Y-77090040D01*
X150482782Y-77335280D01*
X150482781Y-77335282D01*
X150361974Y-77561296D01*
X150199397Y-77759397D01*
X150001296Y-77921974D01*
X150001294Y-77921975D01*
X149775280Y-78042782D01*
X149530040Y-78117175D01*
X149386689Y-78131294D01*
X149338906Y-78136000D01*
X148711094Y-78136000D01*
X148663311Y-78131294D01*
X148519960Y-78117175D01*
X148274720Y-78042782D01*
X148048706Y-77921975D01*
X148048704Y-77921974D01*
X147850603Y-77759397D01*
X147688026Y-77561296D01*
X147567219Y-77335282D01*
X147567218Y-77335280D01*
X147492825Y-77090040D01*
X147467706Y-76835000D01*
X147492825Y-76579960D01*
X147567218Y-76334720D01*
X147688025Y-76108706D01*
X147688026Y-76108704D01*
X147850603Y-75910603D01*
X148048704Y-75748026D01*
X148274718Y-75627219D01*
X148274720Y-75627218D01*
X148519960Y-75552825D01*
X148663311Y-75538706D01*
X148711094Y-75534000D01*
X149338906Y-75534000D01*
X149386689Y-75538706D01*
X149386689Y-75538706D01*
G37*
G36*
X136886689Y-75538706D02*
X137030040Y-75552825D01*
X137275280Y-75627218D01*
X137275282Y-75627219D01*
X137501296Y-75748026D01*
X137699397Y-75910603D01*
X137861974Y-76108704D01*
X137861975Y-76108706D01*
X137982782Y-76334720D01*
X138057175Y-76579960D01*
X138082294Y-76835000D01*
X138057175Y-77090040D01*
X137982782Y-77335280D01*
X137982781Y-77335282D01*
X137861974Y-77561296D01*
X137699397Y-77759397D01*
X137501296Y-77921974D01*
X137501294Y-77921975D01*
X137275280Y-78042782D01*
X137030040Y-78117175D01*
X136886689Y-78131294D01*
X136838906Y-78136000D01*
X136211094Y-78136000D01*
X136163311Y-78131294D01*
X136019960Y-78117175D01*
X135774720Y-78042782D01*
X135548706Y-77921975D01*
X135548704Y-77921974D01*
X135350603Y-77759397D01*
X135188026Y-77561296D01*
X135067219Y-77335282D01*
X135067218Y-77335280D01*
X134992825Y-77090040D01*
X134967706Y-76835000D01*
X134992825Y-76579960D01*
X135067218Y-76334720D01*
X135188025Y-76108706D01*
X135188026Y-76108704D01*
X135350603Y-75910603D01*
X135548704Y-75748026D01*
X135774718Y-75627219D01*
X135774720Y-75627218D01*
X136019960Y-75552825D01*
X136163311Y-75538706D01*
X136211094Y-75534000D01*
X136838906Y-75534000D01*
X136886689Y-75538706D01*
X136886689Y-75538706D01*
G37*
G36*
X119546821Y-73456313D02*
X119546824Y-73456314D01*
X119546825Y-73456314D01*
X119707239Y-73504975D01*
X119707241Y-73504976D01*
X119707244Y-73504977D01*
X119855078Y-73583995D01*
X119984659Y-73690341D01*
X120091005Y-73819922D01*
X120170023Y-73967756D01*
X120218687Y-74128179D01*
X120235117Y-74295000D01*
X120218687Y-74461821D01*
X120170023Y-74622244D01*
X120091005Y-74770078D01*
X119984659Y-74899659D01*
X119855078Y-75006005D01*
X119707244Y-75085023D01*
X119707241Y-75085024D01*
X119707239Y-75085025D01*
X119546825Y-75133686D01*
X119546824Y-75133686D01*
X119546821Y-75133687D01*
X119421804Y-75146000D01*
X119338196Y-75146000D01*
X119213179Y-75133687D01*
X119213176Y-75133686D01*
X119213175Y-75133686D01*
X119052761Y-75085025D01*
X119052759Y-75085024D01*
X119052756Y-75085023D01*
X118904922Y-75006005D01*
X118775341Y-74899659D01*
X118668995Y-74770078D01*
X118589977Y-74622244D01*
X118541313Y-74461821D01*
X118524883Y-74295000D01*
X118541313Y-74128179D01*
X118589977Y-73967756D01*
X118668995Y-73819922D01*
X118775341Y-73690341D01*
X118904922Y-73583995D01*
X119052756Y-73504977D01*
X119052759Y-73504976D01*
X119052761Y-73504975D01*
X119213175Y-73456314D01*
X119213176Y-73456314D01*
X119213179Y-73456313D01*
X119338196Y-73444000D01*
X119421804Y-73444000D01*
X119546821Y-73456313D01*
X119546821Y-73456313D01*
G37*
G36*
X127851000Y-75146000D02*
X126149000Y-75146000D01*
X126149000Y-73444000D01*
X127851000Y-73444000D01*
X127851000Y-75146000D01*
X127851000Y-75146000D01*
G37*
G36*
X124626821Y-73456313D02*
X124626824Y-73456314D01*
X124626825Y-73456314D01*
X124787239Y-73504975D01*
X124787241Y-73504976D01*
X124787244Y-73504977D01*
X124935078Y-73583995D01*
X125064659Y-73690341D01*
X125171005Y-73819922D01*
X125250023Y-73967756D01*
X125298687Y-74128179D01*
X125315117Y-74295000D01*
X125298687Y-74461821D01*
X125250023Y-74622244D01*
X125171005Y-74770078D01*
X125064659Y-74899659D01*
X124935078Y-75006005D01*
X124787244Y-75085023D01*
X124787241Y-75085024D01*
X124787239Y-75085025D01*
X124626825Y-75133686D01*
X124626824Y-75133686D01*
X124626821Y-75133687D01*
X124501804Y-75146000D01*
X124418196Y-75146000D01*
X124293179Y-75133687D01*
X124293176Y-75133686D01*
X124293175Y-75133686D01*
X124132761Y-75085025D01*
X124132759Y-75085024D01*
X124132756Y-75085023D01*
X123984922Y-75006005D01*
X123855341Y-74899659D01*
X123748995Y-74770078D01*
X123669977Y-74622244D01*
X123621313Y-74461821D01*
X123604883Y-74295000D01*
X123621313Y-74128179D01*
X123669977Y-73967756D01*
X123748995Y-73819922D01*
X123855341Y-73690341D01*
X123984922Y-73583995D01*
X124132756Y-73504977D01*
X124132759Y-73504976D01*
X124132761Y-73504975D01*
X124293175Y-73456314D01*
X124293176Y-73456314D01*
X124293179Y-73456313D01*
X124418196Y-73444000D01*
X124501804Y-73444000D01*
X124626821Y-73456313D01*
X124626821Y-73456313D01*
G37*
G36*
X122086821Y-73456313D02*
X122086824Y-73456314D01*
X122086825Y-73456314D01*
X122247239Y-73504975D01*
X122247241Y-73504976D01*
X122247244Y-73504977D01*
X122395078Y-73583995D01*
X122524659Y-73690341D01*
X122631005Y-73819922D01*
X122710023Y-73967756D01*
X122758687Y-74128179D01*
X122775117Y-74295000D01*
X122758687Y-74461821D01*
X122710023Y-74622244D01*
X122631005Y-74770078D01*
X122524659Y-74899659D01*
X122395078Y-75006005D01*
X122247244Y-75085023D01*
X122247241Y-75085024D01*
X122247239Y-75085025D01*
X122086825Y-75133686D01*
X122086824Y-75133686D01*
X122086821Y-75133687D01*
X121961804Y-75146000D01*
X121878196Y-75146000D01*
X121753179Y-75133687D01*
X121753176Y-75133686D01*
X121753175Y-75133686D01*
X121592761Y-75085025D01*
X121592759Y-75085024D01*
X121592756Y-75085023D01*
X121444922Y-75006005D01*
X121315341Y-74899659D01*
X121208995Y-74770078D01*
X121129977Y-74622244D01*
X121081313Y-74461821D01*
X121064883Y-74295000D01*
X121081313Y-74128179D01*
X121129977Y-73967756D01*
X121208995Y-73819922D01*
X121315341Y-73690341D01*
X121444922Y-73583995D01*
X121592756Y-73504977D01*
X121592759Y-73504976D01*
X121592761Y-73504975D01*
X121753175Y-73456314D01*
X121753176Y-73456314D01*
X121753179Y-73456313D01*
X121878196Y-73444000D01*
X121961804Y-73444000D01*
X122086821Y-73456313D01*
X122086821Y-73456313D01*
G37*
M02*
