M48
;DRILL file {KiCad (5.0.2)-1} date 20/02/2019 10:06:29
;FORMAT={-:-/ absolute / inch / decimal}
FMAT,2
INCH,TZ
T1C0.0315
T2C0.0354
T3C0.0472
%
G90
G05
T1
X4.7Y-2.925
X4.7Y-3.225
X4.8Y-2.925
X4.8Y-3.225
X4.9Y-2.925
X4.9Y-3.225
X5.Y-2.925
X5.Y-3.225
T2
X5.225Y-6.1
X5.325Y-6.1
X5.225Y-5.6
X5.325Y-5.6
X5.225Y-5.1
X5.325Y-5.1
X5.225Y-4.1
X5.325Y-4.1
X5.225Y-4.6
X5.325Y-4.6
T3
X5.375Y-3.025
X5.375Y-3.2219
X5.8671Y-3.025
X5.8671Y-3.2219
T0
M30
