G04 #@! TF.GenerationSoftware,KiCad,Pcbnew,(5.0.2)-1*
G04 #@! TF.CreationDate,2019-02-20T10:06:25+00:00*
G04 #@! TF.ProjectId,PersistenceOfVision,50657273-6973-4746-956e-63654f665669,1*
G04 #@! TF.SameCoordinates,Original*
G04 #@! TF.FileFunction,Legend,Bot*
G04 #@! TF.FilePolarity,Positive*
%FSLAX46Y46*%
G04 Gerber Fmt 4.6, Leading zero omitted, Abs format (unit mm)*
G04 Created by KiCad (PCBNEW (5.0.2)-1) date 20/02/2019 10:06:25*
%MOMM*%
%LPD*%
G01*
G04 APERTURE LIST*
%ADD10C,0.150000*%
%ADD11C,1.200000*%
G04 APERTURE END LIST*
D10*
G36*
X130175000Y-67945000D02*
X139065000Y-53975000D01*
X133985000Y-55245000D01*
X139065000Y-41275000D01*
X132080000Y-41275000D01*
X130810000Y-58420000D01*
X133985000Y-57785000D01*
X130175000Y-67945000D01*
G37*
X130175000Y-67945000D02*
X139065000Y-53975000D01*
X133985000Y-55245000D01*
X139065000Y-41275000D01*
X132080000Y-41275000D01*
X130810000Y-58420000D01*
X133985000Y-57785000D01*
X130175000Y-67945000D01*
D11*
X146008809Y-99066904D02*
X146008809Y-94066904D01*
X146008809Y-96447857D02*
X143151666Y-96447857D01*
X143151666Y-99066904D02*
X143151666Y-94066904D01*
X138627857Y-99066904D02*
X138627857Y-96447857D01*
X138865952Y-95971666D01*
X139342142Y-95733571D01*
X140294523Y-95733571D01*
X140770714Y-95971666D01*
X138627857Y-98828809D02*
X139104047Y-99066904D01*
X140294523Y-99066904D01*
X140770714Y-98828809D01*
X141008809Y-98352619D01*
X141008809Y-97876428D01*
X140770714Y-97400238D01*
X140294523Y-97162142D01*
X139104047Y-97162142D01*
X138627857Y-96924047D01*
X133389761Y-98590714D02*
X133627857Y-98828809D01*
X134342142Y-99066904D01*
X134818333Y-99066904D01*
X135532619Y-98828809D01*
X136008809Y-98352619D01*
X136246904Y-97876428D01*
X136485000Y-96924047D01*
X136485000Y-96209761D01*
X136246904Y-95257380D01*
X136008809Y-94781190D01*
X135532619Y-94305000D01*
X134818333Y-94066904D01*
X134342142Y-94066904D01*
X133627857Y-94305000D01*
X133389761Y-94543095D01*
X131246904Y-99066904D02*
X131246904Y-94066904D01*
X130770714Y-97162142D02*
X129342142Y-99066904D01*
X129342142Y-95733571D02*
X131246904Y-97638333D01*
X127199285Y-96447857D02*
X125532619Y-96447857D01*
X124818333Y-99066904D02*
X127199285Y-99066904D01*
X127199285Y-94066904D01*
X124818333Y-94066904D01*
X122675476Y-99066904D02*
X122675476Y-95733571D01*
X122675476Y-96685952D02*
X122437380Y-96209761D01*
X122199285Y-95971666D01*
X121723095Y-95733571D01*
X121246904Y-95733571D01*
X150889761Y-124928809D02*
X150175476Y-125166904D01*
X148985000Y-125166904D01*
X148508809Y-124928809D01*
X148270714Y-124690714D01*
X148032619Y-124214523D01*
X148032619Y-123738333D01*
X148270714Y-123262142D01*
X148508809Y-123024047D01*
X148985000Y-122785952D01*
X149937380Y-122547857D01*
X150413571Y-122309761D01*
X150651666Y-122071666D01*
X150889761Y-121595476D01*
X150889761Y-121119285D01*
X150651666Y-120643095D01*
X150413571Y-120405000D01*
X149937380Y-120166904D01*
X148746904Y-120166904D01*
X148032619Y-120405000D01*
X145889761Y-125166904D02*
X145889761Y-120166904D01*
X143985000Y-120166904D01*
X143508809Y-120405000D01*
X143270714Y-120643095D01*
X143032619Y-121119285D01*
X143032619Y-121833571D01*
X143270714Y-122309761D01*
X143508809Y-122547857D01*
X143985000Y-122785952D01*
X145889761Y-122785952D01*
X141127857Y-123738333D02*
X138746904Y-123738333D01*
X141604047Y-125166904D02*
X139937380Y-120166904D01*
X138270714Y-125166904D01*
X133746904Y-125166904D02*
X135413571Y-122785952D01*
X136604047Y-125166904D02*
X136604047Y-120166904D01*
X134699285Y-120166904D01*
X134223095Y-120405000D01*
X133985000Y-120643095D01*
X133746904Y-121119285D01*
X133746904Y-121833571D01*
X133985000Y-122309761D01*
X134223095Y-122547857D01*
X134699285Y-122785952D01*
X136604047Y-122785952D01*
X131604047Y-125166904D02*
X131604047Y-120166904D01*
X128746904Y-125166904D02*
X130889761Y-122309761D01*
X128746904Y-120166904D02*
X131604047Y-123024047D01*
X126604047Y-125166904D02*
X126604047Y-120166904D01*
X124223095Y-122547857D02*
X122556428Y-122547857D01*
X121842142Y-125166904D02*
X124223095Y-125166904D01*
X124223095Y-120166904D01*
X121842142Y-120166904D01*
X119937380Y-124928809D02*
X119223095Y-125166904D01*
X118032619Y-125166904D01*
X117556428Y-124928809D01*
X117318333Y-124690714D01*
X117080238Y-124214523D01*
X117080238Y-123738333D01*
X117318333Y-123262142D01*
X117556428Y-123024047D01*
X118032619Y-122785952D01*
X118985000Y-122547857D01*
X119461190Y-122309761D01*
X119699285Y-122071666D01*
X119937380Y-121595476D01*
X119937380Y-121119285D01*
X119699285Y-120643095D01*
X119461190Y-120405000D01*
X118985000Y-120166904D01*
X117794523Y-120166904D01*
X117080238Y-120405000D01*
M02*
