G04 #@! TF.GenerationSoftware,KiCad,Pcbnew,(5.0.2)-1*
G04 #@! TF.CreationDate,2019-02-20T10:06:25+00:00*
G04 #@! TF.ProjectId,PersistenceOfVision,50657273-6973-4746-956e-63654f665669,1*
G04 #@! TF.SameCoordinates,Original*
G04 #@! TF.FileFunction,Copper,L1,Top*
G04 #@! TF.FilePolarity,Positive*
%FSLAX46Y46*%
G04 Gerber Fmt 4.6, Leading zero omitted, Abs format (unit mm)*
G04 Created by KiCad (PCBNEW (5.0.2)-1) date 20/02/2019 10:06:25*
%MOMM*%
%LPD*%
G01*
G04 APERTURE LIST*
G04 #@! TA.AperFunction,ComponentPad*
%ADD10O,3.000000X2.500000*%
G04 #@! TD*
G04 #@! TA.AperFunction,SMDPad,CuDef*
%ADD11R,2.600000X3.600000*%
G04 #@! TD*
G04 #@! TA.AperFunction,ComponentPad*
%ADD12R,1.800000X1.800000*%
G04 #@! TD*
G04 #@! TA.AperFunction,ComponentPad*
%ADD13C,1.800000*%
G04 #@! TD*
G04 #@! TA.AperFunction,ComponentPad*
%ADD14R,1.600000X1.600000*%
G04 #@! TD*
G04 #@! TA.AperFunction,ComponentPad*
%ADD15O,1.600000X1.600000*%
G04 #@! TD*
G04 #@! TA.AperFunction,Conductor*
%ADD16C,0.250000*%
G04 #@! TD*
G04 APERTURE END LIST*
D10*
G04 #@! TO.P,SW1,2*
G04 #@! TO.N,Net-(SW1-Pad2)*
X136525000Y-81835000D03*
G04 #@! TO.P,SW1,1*
G04 #@! TO.N,Net-(BT1-Pad1)*
X136525000Y-76835000D03*
G04 #@! TO.P,SW1,2*
G04 #@! TO.N,Net-(SW1-Pad2)*
X149025000Y-81835000D03*
G04 #@! TO.P,SW1,1*
G04 #@! TO.N,Net-(BT1-Pad1)*
X149025000Y-76835000D03*
G04 #@! TD*
D11*
G04 #@! TO.P,BT1,2*
G04 #@! TO.N,GND*
X119335000Y-54610000D03*
G04 #@! TO.P,BT1,1*
G04 #@! TO.N,Net-(BT1-Pad1)*
X148635000Y-54610000D03*
G04 #@! TD*
D12*
G04 #@! TO.P,D5,1*
G04 #@! TO.N,GND*
X135255000Y-129540000D03*
D13*
G04 #@! TO.P,D5,2*
G04 #@! TO.N,Net-(D5-Pad2)*
X132715000Y-129540000D03*
G04 #@! TD*
G04 #@! TO.P,D4,2*
G04 #@! TO.N,Net-(D4-Pad2)*
X132715000Y-116840000D03*
D12*
G04 #@! TO.P,D4,1*
G04 #@! TO.N,GND*
X135255000Y-116840000D03*
G04 #@! TD*
G04 #@! TO.P,D3,1*
G04 #@! TO.N,GND*
X135255000Y-104140000D03*
D13*
G04 #@! TO.P,D3,2*
G04 #@! TO.N,Net-(D3-Pad2)*
X132715000Y-104140000D03*
G04 #@! TD*
G04 #@! TO.P,D2,2*
G04 #@! TO.N,Net-(D2-Pad2)*
X132715000Y-142240000D03*
D12*
G04 #@! TO.P,D2,1*
G04 #@! TO.N,GND*
X135255000Y-142240000D03*
G04 #@! TD*
G04 #@! TO.P,D1,1*
G04 #@! TO.N,GND*
X135255000Y-154940000D03*
D13*
G04 #@! TO.P,D1,2*
G04 #@! TO.N,Net-(D1-Pad2)*
X132715000Y-154940000D03*
G04 #@! TD*
D14*
G04 #@! TO.P,U1,1*
G04 #@! TO.N,Net-(U1-Pad1)*
X127000000Y-74295000D03*
D15*
G04 #@! TO.P,U1,5*
G04 #@! TO.N,Net-(D5-Pad2)*
X119380000Y-81915000D03*
G04 #@! TO.P,U1,2*
G04 #@! TO.N,Net-(D2-Pad2)*
X124460000Y-74295000D03*
G04 #@! TO.P,U1,6*
G04 #@! TO.N,Net-(D4-Pad2)*
X121920000Y-81915000D03*
G04 #@! TO.P,U1,3*
G04 #@! TO.N,Net-(D1-Pad2)*
X121920000Y-74295000D03*
G04 #@! TO.P,U1,7*
G04 #@! TO.N,Net-(D3-Pad2)*
X124460000Y-81915000D03*
G04 #@! TO.P,U1,4*
G04 #@! TO.N,GND*
X119380000Y-74295000D03*
G04 #@! TO.P,U1,8*
G04 #@! TO.N,Net-(SW1-Pad2)*
X127000000Y-81915000D03*
G04 #@! TD*
D16*
G04 #@! TO.N,Net-(D5-Pad2)*
X119380000Y-116205000D02*
X132715000Y-129540000D01*
X119380000Y-81915000D02*
X119380000Y-116205000D01*
G04 #@! TO.N,Net-(D2-Pad2)*
X131815001Y-141340001D02*
X132715000Y-142240000D01*
X116205000Y-125730000D02*
X131815001Y-141340001D01*
X116205000Y-82550000D02*
X116205000Y-125730000D01*
X124460000Y-74295000D02*
X116205000Y-82550000D01*
G04 #@! TO.N,Net-(D4-Pad2)*
X121920000Y-106045000D02*
X132715000Y-116840000D01*
X121920000Y-81915000D02*
X121920000Y-106045000D01*
G04 #@! TO.N,Net-(D1-Pad2)*
X131815001Y-154040001D02*
X132715000Y-154940000D01*
X115754991Y-137979991D02*
X131815001Y-154040001D01*
X115754991Y-80460009D02*
X115754991Y-137979991D01*
X121920000Y-74295000D02*
X115754991Y-80460009D01*
G04 #@! TO.N,Net-(D3-Pad2)*
X124460000Y-95885000D02*
X132715000Y-104140000D01*
X124460000Y-81915000D02*
X124460000Y-95885000D01*
G04 #@! TO.N,GND*
X119380000Y-54655000D02*
X119335000Y-54610000D01*
X119380000Y-74295000D02*
X119380000Y-54655000D01*
X135255000Y-156090000D02*
X135255000Y-154940000D01*
X135179999Y-156165001D02*
X135255000Y-156090000D01*
X132126999Y-156165001D02*
X135179999Y-156165001D01*
X115304981Y-139342983D02*
X132126999Y-156165001D01*
X115304981Y-78370019D02*
X115304981Y-139342983D01*
X119380000Y-74295000D02*
X115304981Y-78370019D01*
X135255000Y-154940000D02*
X135255000Y-104140000D01*
G04 #@! TO.N,Net-(SW1-Pad2)*
X128985000Y-81835000D02*
X128905000Y-81915000D01*
X136445000Y-81915000D02*
X136525000Y-81835000D01*
X127000000Y-81915000D02*
X136445000Y-81915000D01*
G04 #@! TO.N,Net-(BT1-Pad1)*
X149025000Y-55000000D02*
X148635000Y-54610000D01*
X149025000Y-76835000D02*
X149025000Y-55000000D01*
G04 #@! TD*
M02*
